<svg xmlns="http://www.w3.org/2000/svg" width="48" height="48" viewBox="0 0 48 48">
  <rect x="14" y="14" width="20" height="20" rx="2" fill="#00CEC9" opacity="0.25"/>
  <path fill="#00CEC9" d="M15,14 L33,14 C34.1045695,14 35,14.8954305 35,16 L35,32 C35,33.1045695 34.1045695,34 33,34 L15,34 C13.8954305,34 13,33.1045695 13,32 L13,16 C13,14.8954305 13.8954305,14 15,14 Z M18,18 L18,30 L20,30 L20,18 L18,18 Z M24,22 L24,30 L26,30 L26,22 L24,22 Z M30,20 L30,30 L32,30 L32,20 L30,20 Z" />
  <line x1="17" y1="28" x2="31" y2="21" stroke="#00CEC9" stroke-width="2" stroke-linecap="round"/>
</svg>